<svg width="20" height="20" viewBox="0 0 20 20" fill="none" xmlns="http://www.w3.org/2000/svg">
<path d="M5 18.75H15V20H6.25C4.86929 20 3.75 18.8807 3.75 17.5C2.36929 17.5 1.25 16.3807 1.25 15V2C1.25 0.89543 2.14543 0 3.25 0H9.22446C9.48967 0 9.74403 0.105357 9.93157 0.292893L13.5645 3.92578L17.316 7.67728C17.4338 7.79512 17.5 7.95496 17.5 8.12161C17.5 8.46866 17.2187 8.75 16.8716 8.75H13.25C12.1454 8.75 11.25 7.85457 11.25 6.75V3.75H5V18.75ZM12.5 7.5H15.3613L12.5 4.63867V7.5ZM3.75 16.25V2.5H10.3613L9.11133 1.25H2.5V16.25H3.75ZM16.875 12.2461L19.9707 15.3418L19.0918 16.2207L17.5 14.6387V20H16.25V14.6387L14.6582 16.2207L13.7793 15.3418L16.875 12.2461ZM20 10V11.25H13.75V10H20Z" fill="#344054"/>
</svg>
